<?xml version="1.0" encoding="UTF-8"?>
<!-- Created with Inkscape (http://www.inkscape.org/) -->
<svg width="142.88" height="211.01" version="1.1" viewBox="0 0 142.88 211.01" xml:space="preserve" xmlns="http://www.w3.org/2000/svg" xmlns:cc="http://creativecommons.org/ns#" xmlns:dc="http://purl.org/dc/elements/1.1/" xmlns:rdf="http://www.w3.org/1999/02/22-rdf-syntax-ns#"><metadata><rdf:RDF><cc:Work rdf:about=""><dc:format>image/svg+xml</dc:format><dc:type rdf:resource="http://purl.org/dc/dcmitype/StillImage"/><dc:title/></cc:Work></rdf:RDF></metadata><defs><clipPath id="clipPath18"><path d="m238.66 550.54c0-12.485 4.296-23.949 11.47-33.05 6.345-8.04 12.356-16.835 17.543-25.678h49.13c5.243 8.925 11.145 17.557 17.55 25.685 7.169 9.094 11.464 20.558 11.464 33.043 0 29.593-23.989 53.583-53.575 53.583-29.593 0-53.582-23.99-53.582-53.583m65.434 26.979c2.035 0.96 4.228 1.552 6.474 1.688 3.424 0.198 7.795-0.579 10.953-4.738 4.888-6.453 4.922-13.989 4.773-16.529-0.035-0.531-0.368-1-0.865-1.204l-8.36-3.438c-0.19-0.075-0.388 0.088-0.347 0.292 1.082 5.603-3.023 5.732-3.214 5.746-5.48 0.388-7.998-5.963-8.903-9.122-0.287-0.981-0.423-1.995-0.436-3.015l-0.041-3.874c-0.014-0.947 0.156-1.879 0.483-2.764l1.702-4.521c0.299-0.802 0.456-1.654 0.456-2.504v-1.328c0-0.633-0.231-1.245-0.646-1.729l-13.05-15.079c-0.212-0.245-0.511-0.381-0.831-0.381s-0.626 0.136-0.838 0.381l-13.05 15.079c-0.415 0.484-0.64 1.096-0.64 1.729v1.328c0 0.85 0.151 1.702 0.449 2.504l1.702 4.521c0.334 0.885 0.498 1.817 0.485 2.764l-0.042 3.874c-6e-3 1.027-0.156 2.048-0.435 3.035-0.913 3.159-3.431 9.49-8.905 9.102-0.19-0.014-4.295-0.143-3.213-5.746 0.041-0.204-0.157-0.367-0.347-0.292l-8.36 3.438c-0.496 0.204-0.83 0.673-0.857 1.204-0.157 2.54-0.123 10.076 4.771 16.529 3.152 4.159 7.523 4.936 10.947 4.738 2.247-0.136 4.439-0.728 6.474-1.688 2.063-0.973 6.746-2.906 11.859-3.104 5.106 0.198 9.789 2.131 11.852 3.104m-31.682-93.345c-2.951 0-5.346-2.394-5.346-5.346 0-2.953 2.395-5.346 5.346-5.346h39.659c2.95 0 5.348 2.393 5.348 5.346 0 2.952-2.398 5.346-5.348 5.346zm-2.637-16.551c0-6.855 5.337-12.413 12.071-12.89v-2.914c0-3.287 2.662-5.952 5.952-5.952h8.887c3.283 0 5.951 2.665 5.951 5.952v2.914c6.736 0.477 12.068 6.035 12.068 12.89z"/></clipPath><linearGradient id="linearGradient28" x2="1" gradientTransform="matrix(0 158.26 158.26 0 292.23 445.87)" gradientUnits="userSpaceOnUse"><stop stop-color="#0083b0" offset="0"/><stop stop-color="#46aedc" offset="1"/></linearGradient></defs><g transform="matrix(1.3333 0 0 -1.3333 -318.21 805.5)"><g clip-path="url(#clipPath18)"><path d="m238.66 550.54c0-12.485 4.296-23.949 11.47-33.05 6.345-8.04 12.356-16.835 17.543-25.678h49.13c5.243 8.925 11.145 17.557 17.55 25.685 7.169 9.094 11.464 20.558 11.464 33.043 0 29.593-23.989 53.583-53.575 53.583-29.593 0-53.582-23.99-53.582-53.583m65.434 26.979c2.035 0.96 4.228 1.552 6.474 1.688 3.424 0.198 7.795-0.579 10.953-4.738 4.888-6.453 4.922-13.989 4.773-16.529-0.035-0.531-0.368-1-0.865-1.204l-8.36-3.438c-0.19-0.075-0.388 0.088-0.347 0.292 1.082 5.603-3.023 5.732-3.214 5.746-5.48 0.388-7.998-5.963-8.903-9.122-0.287-0.981-0.423-1.995-0.436-3.015l-0.041-3.874c-0.014-0.947 0.156-1.879 0.483-2.764l1.702-4.521c0.299-0.802 0.456-1.654 0.456-2.504v-1.328c0-0.633-0.231-1.245-0.646-1.729l-13.05-15.079c-0.212-0.245-0.511-0.381-0.831-0.381s-0.626 0.136-0.838 0.381l-13.05 15.079c-0.415 0.484-0.64 1.096-0.64 1.729v1.328c0 0.85 0.151 1.702 0.449 2.504l1.702 4.521c0.334 0.885 0.498 1.817 0.485 2.764l-0.042 3.874c-6e-3 1.027-0.156 2.048-0.435 3.035-0.913 3.159-3.431 9.49-8.905 9.102-0.19-0.014-4.295-0.143-3.213-5.746 0.041-0.204-0.157-0.367-0.347-0.292l-8.36 3.438c-0.496 0.204-0.83 0.673-0.857 1.204-0.157 2.54-0.123 10.076 4.771 16.529 3.152 4.159 7.523 4.936 10.947 4.738 2.247-0.136 4.439-0.728 6.474-1.688 2.063-0.973 6.746-2.906 11.859-3.104 5.106 0.198 9.789 2.131 11.852 3.104m-31.682-93.345c-2.951 0-5.346-2.394-5.346-5.346 0-2.953 2.395-5.346 5.346-5.346h39.659c2.95 0 5.348 2.393 5.348 5.346 0 2.952-2.398 5.346-5.348 5.346zm-2.637-16.551c0-6.855 5.337-12.413 12.071-12.89v-2.914c0-3.287 2.662-5.952 5.952-5.952h8.887c3.283 0 5.951 2.665 5.951 5.952v2.914c6.736 0.477 12.068 6.035 12.068 12.89z" fill="url(#linearGradient28)"/></g></g></svg>
