<?xml version="1.0" encoding="UTF-8"?>
<!-- Created with Inkscape (http://www.inkscape.org/) -->
<svg width="763.59" height="211.01" version="1.1" viewBox="0 0 763.59 211.01" xml:space="preserve" xmlns="http://www.w3.org/2000/svg" xmlns:cc="http://creativecommons.org/ns#" xmlns:dc="http://purl.org/dc/elements/1.1/" xmlns:rdf="http://www.w3.org/1999/02/22-rdf-syntax-ns#"><metadata><rdf:RDF><cc:Work rdf:about=""><dc:format>image/svg+xml</dc:format><dc:type rdf:resource="http://purl.org/dc/dcmitype/StillImage"/><dc:title/></cc:Work></rdf:RDF></metadata><defs><clipPath id="clipPath18"><path d="m238.66 550.54c0-12.485 4.296-23.949 11.47-33.05 6.345-8.04 12.356-16.835 17.543-25.678h49.13c5.243 8.925 11.145 17.557 17.55 25.685 7.169 9.094 11.464 20.558 11.464 33.043 0 29.593-23.989 53.583-53.575 53.583-29.593 0-53.582-23.99-53.582-53.583m65.434 26.979c2.035 0.96 4.228 1.552 6.474 1.688 3.424 0.198 7.795-0.579 10.953-4.738 4.888-6.453 4.922-13.989 4.773-16.529-0.035-0.531-0.368-1-0.865-1.204l-8.36-3.438c-0.19-0.075-0.388 0.088-0.347 0.292 1.082 5.603-3.023 5.732-3.214 5.746-5.48 0.388-7.998-5.963-8.903-9.122-0.287-0.981-0.423-1.995-0.436-3.015l-0.041-3.874c-0.014-0.947 0.156-1.879 0.483-2.764l1.702-4.521c0.299-0.802 0.456-1.654 0.456-2.504v-1.328c0-0.633-0.231-1.245-0.646-1.729l-13.05-15.079c-0.212-0.245-0.511-0.381-0.831-0.381s-0.626 0.136-0.838 0.381l-13.05 15.079c-0.415 0.484-0.64 1.096-0.64 1.729v1.328c0 0.85 0.151 1.702 0.449 2.504l1.702 4.521c0.334 0.885 0.498 1.817 0.485 2.764l-0.042 3.874c-6e-3 1.027-0.156 2.048-0.435 3.035-0.913 3.159-3.431 9.49-8.905 9.102-0.19-0.014-4.295-0.143-3.213-5.746 0.041-0.204-0.157-0.367-0.347-0.292l-8.36 3.438c-0.496 0.204-0.83 0.673-0.857 1.204-0.157 2.54-0.123 10.076 4.771 16.529 3.152 4.159 7.523 4.936 10.947 4.738 2.247-0.136 4.439-0.728 6.474-1.688 2.063-0.973 6.746-2.906 11.859-3.104 5.106 0.198 9.789 2.131 11.852 3.104m-31.682-93.345c-2.951 0-5.346-2.394-5.346-5.346 0-2.953 2.395-5.346 5.346-5.346h39.659c2.95 0 5.348 2.393 5.348 5.346 0 2.952-2.398 5.346-5.348 5.346zm-2.637-16.551c0-6.855 5.337-12.413 12.071-12.89v-2.914c0-3.287 2.662-5.952 5.952-5.952h8.887c3.283 0 5.951 2.665 5.951 5.952v2.914c6.736 0.477 12.068 6.035 12.068 12.89z"/></clipPath><linearGradient id="linearGradient28" x2="1" gradientTransform="matrix(0 158.26 158.26 0 292.23 445.87)" gradientUnits="userSpaceOnUse"><stop stop-color="#0083b0" offset="0"/><stop stop-color="#46aedc" offset="1"/></linearGradient><clipPath id="clipPath38"><path d="m0 1050h1050v-1050h-1050z"/></clipPath></defs><g transform="matrix(1.3333 0 0 -1.3333 -318.21 805.5)"><g clip-path="url(#clipPath18)"><path d="m238.66 550.54c0-12.485 4.296-23.949 11.47-33.05 6.345-8.04 12.356-16.835 17.543-25.678h49.13c5.243 8.925 11.145 17.557 17.55 25.685 7.169 9.094 11.464 20.558 11.464 33.043 0 29.593-23.989 53.583-53.575 53.583-29.593 0-53.582-23.99-53.582-53.583m65.434 26.979c2.035 0.96 4.228 1.552 6.474 1.688 3.424 0.198 7.795-0.579 10.953-4.738 4.888-6.453 4.922-13.989 4.773-16.529-0.035-0.531-0.368-1-0.865-1.204l-8.36-3.438c-0.19-0.075-0.388 0.088-0.347 0.292 1.082 5.603-3.023 5.732-3.214 5.746-5.48 0.388-7.998-5.963-8.903-9.122-0.287-0.981-0.423-1.995-0.436-3.015l-0.041-3.874c-0.014-0.947 0.156-1.879 0.483-2.764l1.702-4.521c0.299-0.802 0.456-1.654 0.456-2.504v-1.328c0-0.633-0.231-1.245-0.646-1.729l-13.05-15.079c-0.212-0.245-0.511-0.381-0.831-0.381s-0.626 0.136-0.838 0.381l-13.05 15.079c-0.415 0.484-0.64 1.096-0.64 1.729v1.328c0 0.85 0.151 1.702 0.449 2.504l1.702 4.521c0.334 0.885 0.498 1.817 0.485 2.764l-0.042 3.874c-6e-3 1.027-0.156 2.048-0.435 3.035-0.913 3.159-3.431 9.49-8.905 9.102-0.19-0.014-4.295-0.143-3.213-5.746 0.041-0.204-0.157-0.367-0.347-0.292l-8.36 3.438c-0.496 0.204-0.83 0.673-0.857 1.204-0.157 2.54-0.123 10.076 4.771 16.529 3.152 4.159 7.523 4.936 10.947 4.738 2.247-0.136 4.439-0.728 6.474-1.688 2.063-0.973 6.746-2.906 11.859-3.104 5.106 0.198 9.789 2.131 11.852 3.104m-31.682-93.345c-2.951 0-5.346-2.394-5.346-5.346 0-2.953 2.395-5.346 5.346-5.346h39.659c2.95 0 5.348 2.393 5.348 5.346 0 2.952-2.398 5.346-5.348 5.346zm-2.637-16.551c0-6.855 5.337-12.413 12.071-12.89v-2.914c0-3.287 2.662-5.952 5.952-5.952h8.887c3.283 0 5.951 2.665 5.951 5.952v2.914c6.736 0.477 12.068 6.035 12.068 12.89z" fill="url(#linearGradient28)"/></g><g clip-path="url(#clipPath38)"><g transform="translate(393.07 520.84)"><path d="m0 0v-17.119h3.187c5.282 0 8.842 0.665 10.678 1.998 1.836 1.331 2.755 3.269 2.755 5.813 0 2.874-1.077 5.146-3.233 6.811-2.156 1.664-5.737 2.497-10.746 2.497zm0 25.431v-14.078h2.781c3.099 0 5.402 0.651 6.906 1.953 1.504 1.3 2.256 3.072 2.256 5.312 0 2.089-0.715 3.746-2.143 4.973-1.428 1.226-3.601 1.84-6.518 1.84zm-12.715-54.675v66.798h10.502c6.093 0 10.549-0.393 13.367-1.18 4.002-1.061 7.185-3.028 9.549-5.903 2.364-2.877 3.546-6.267 3.546-10.172 0-2.543-0.538-4.851-1.611-6.925-1.075-2.074-2.824-4.019-5.245-5.835 4.056-1.908 7.022-4.292 8.9-7.153 1.876-2.861 2.815-6.244 2.815-10.149 0-3.754-0.97-7.175-2.91-10.263s-4.44-5.397-7.501-6.925c-3.061-1.529-7.288-2.293-12.682-2.293z" fill="#283047"/></g><path d="m431.58 560.08h12.397v-68.48h-12.397z" fill="#283047"/><g transform="translate(455.19 541.01)"><path d="m0 0h12.533v-23.796c0-4.632 0.32-7.849 0.956-9.649 0.638-1.802 1.663-3.202 3.073-4.2 1.41-1 3.148-1.499 5.212-1.499s3.816 0.491 5.258 1.475 2.512 2.429 3.209 4.336c0.517 1.424 0.774 4.466 0.774 9.129v24.204h12.399v-20.934c0-8.629-0.682-14.533-2.045-17.711-1.665-3.876-4.117-6.85-7.356-8.923-3.24-2.073-7.357-3.111-12.352-3.111-5.42 0-9.801 1.211-13.146 3.633s-5.7 5.797-7.061 10.127c-0.969 2.996-1.454 8.446-1.454 16.348z" fill="#283047"/></g><g transform="translate(548.15 522.48)"><path d="m0 0c-0.819 2.755-2.434 4.996-4.845 6.721s-5.208 2.589-8.392 2.589c-3.457 0-6.49-0.97-9.097-2.907-1.637-1.211-3.155-3.346-4.549-6.403zm12.397-9.763h-39.826c0.576-3.512 2.112-6.305 4.61-8.378 2.497-2.075 5.684-3.112 9.56-3.112 4.631 0 8.611 1.621 11.942 4.86l10.444-4.904c-2.604-3.694-5.721-6.426-9.354-8.197s-7.947-2.657-12.943-2.657c-7.75 0-14.062 2.444-18.936 7.334-4.874 4.889-7.31 11.012-7.31 18.369 0 7.537 2.429 13.797 7.288 18.778 4.859 4.978 10.951 7.469 18.277 7.469 7.781 0 14.107-2.491 18.983-7.469 4.874-4.981 7.31-11.557 7.31-19.732z" fill="#283047"/></g><g transform="translate(607 549.32)"><path d="m0 0-9.417-8.31c-3.306 4.601-6.672 6.902-10.099 6.902-1.669 0-3.033-0.447-4.095-1.34s-1.591-1.9-1.591-3.02 0.377-2.179 1.137-3.179c1.031-1.332 4.14-4.192 9.324-8.582 4.852-4.058 7.794-6.615 8.825-7.674 2.578-2.605 4.405-5.094 5.482-7.471 1.076-2.377 1.615-4.971 1.615-7.787 0-5.48-1.894-10.007-5.683-13.579-3.788-3.572-8.728-5.357-14.82-5.357-4.758 0-8.902 1.165-12.433 3.497-3.531 2.33-6.553 5.993-9.069 10.989l10.688 6.448c3.214-5.904 6.913-8.855 11.097-8.855 2.182 0 4.018 0.635 5.504 1.907 1.485 1.271 2.227 2.74 2.227 4.405 0 1.513-0.561 3.026-1.682 4.541-1.122 1.513-3.594 3.83-7.415 6.947-7.278 5.933-11.98 10.513-14.102 13.738-2.123 3.223-3.183 6.44-3.183 9.649 0 4.632 1.765 8.606 5.296 11.92 3.531 3.316 7.888 4.973 13.071 4.973 3.334 0 6.51-0.772 9.525-2.316 3.016-1.544 6.281-4.359 9.798-8.446" fill="#283047"/></g><g transform="translate(618.94 541.01)"><path d="m0 0h12.397v-5.064c2.81 2.37 5.357 4.018 7.639 4.945s4.618 1.389 7.007 1.389c4.898 0 9.053-1.71 12.47-5.13 2.872-2.906 4.307-7.206 4.307-12.897v-32.65h-12.26v21.635c0 5.898-0.265 9.812-0.793 11.747-0.528 1.936-1.45 3.41-2.764 4.423-1.314 1.014-2.937 1.52-4.87 1.52-2.506 0-4.659-0.839-6.455-2.517-1.797-1.679-3.044-4-3.738-6.963-0.362-1.543-0.543-4.884-0.543-10.023v-19.822h-12.397z" fill="#283047"/></g><g transform="translate(698.16 530.61)"><path d="m0 0c-3.852 0-7.058-1.34-9.621-4.02-2.562-2.679-3.843-6.107-3.843-10.285 0-4.299 1.265-7.781 3.798-10.444 2.531-2.665 5.739-3.996 9.62-3.996 3.882 0 7.111 1.347 9.69 4.041 2.576 2.695 3.865 6.16 3.865 10.399s-1.266 7.681-3.798 10.332c-2.533 2.647-5.769 3.973-9.711 3.973m-0.205 11.669c4.662 0 9.045-1.164 13.147-3.495 4.102-2.332 7.303-5.495 9.605-9.492 2.3-3.996 3.45-8.31 3.45-12.941 0-4.663-1.158-9.022-3.474-13.078-2.315-4.058-5.471-7.229-9.468-9.515-3.996-2.284-8.4-3.428-13.215-3.428-7.083 0-13.131 2.521-18.141 7.561-5.01 5.041-7.515 11.163-7.515 18.369 0 7.72 2.83 14.152 8.492 19.299 4.964 4.481 10.671 6.72 17.119 6.72" fill="#283047"/></g><g transform="translate(734.24 541.01)"><path d="m0 0h12.533v-23.796c0-4.632 0.32-7.849 0.956-9.649 0.638-1.802 1.663-3.202 3.073-4.2 1.41-1 3.148-1.499 5.212-1.499s3.816 0.491 5.258 1.475 2.512 2.429 3.209 4.336c0.517 1.424 0.774 4.466 0.774 9.129v24.204h12.399v-20.934c0-8.629-0.682-14.533-2.045-17.711-1.665-3.876-4.117-6.85-7.356-8.923-3.24-2.073-7.357-3.111-12.352-3.111-5.42 0-9.801 1.211-13.146 3.633s-5.7 5.797-7.061 10.127c-0.969 2.996-1.454 8.446-1.454 16.348z" fill="#283047"/></g><g transform="translate(791.59 559.22)"><path d="m0 0h12.397v-18.209h7.357v-10.672h-7.357v-38.735h-12.397v38.735h-6.357v10.672h6.357z" fill="#283047"/></g></g></g></svg>
